<mxfile host="app.diagrams.net" agent="Mozilla/5.0 (Windows NT 10.0; Win64; x64) AppleWebKit/537.36 (KHTML, like Gecko) Chrome/122.0.0.0 Safari/537.36" version="24.8.8">
  <diagram name="Page-1" id="xYLlPG4ysybyu49jcoZO">
    <mxGraphModel dx="1839" dy="592" grid="1" gridSize="10" guides="1" tooltips="1" connect="1" arrows="1" fold="1" page="1" pageScale="1" pageWidth="850" pageHeight="1100" math="0" shadow="0">
      <root>
        <mxCell id="0" />
        <mxCell id="1" parent="0" />
        <mxCell id="X_FWfzNXIEtCgG27BpAt-10" style="edgeStyle=orthogonalEdgeStyle;rounded=0;orthogonalLoop=1;jettySize=auto;html=1;exitX=1;exitY=0.5;exitDx=0;exitDy=0;" edge="1" parent="1" source="X_FWfzNXIEtCgG27BpAt-1" target="X_FWfzNXIEtCgG27BpAt-3">
          <mxGeometry relative="1" as="geometry" />
        </mxCell>
        <mxCell id="X_FWfzNXIEtCgG27BpAt-12" style="edgeStyle=orthogonalEdgeStyle;rounded=0;orthogonalLoop=1;jettySize=auto;html=1;exitX=0.5;exitY=1;exitDx=0;exitDy=0;entryX=0;entryY=0.5;entryDx=0;entryDy=0;" edge="1" parent="1" source="X_FWfzNXIEtCgG27BpAt-1" target="X_FWfzNXIEtCgG27BpAt-2">
          <mxGeometry relative="1" as="geometry" />
        </mxCell>
        <mxCell id="X_FWfzNXIEtCgG27BpAt-1" value="Finish Cartesian Software" style="rounded=1;whiteSpace=wrap;html=1;fillColor=#e1d5e7;strokeColor=#9673a6;fontStyle=1" vertex="1" parent="1">
          <mxGeometry x="90" y="270" width="110" height="40" as="geometry" />
        </mxCell>
        <mxCell id="X_FWfzNXIEtCgG27BpAt-13" style="edgeStyle=orthogonalEdgeStyle;rounded=0;orthogonalLoop=1;jettySize=auto;html=1;exitX=0.5;exitY=0;exitDx=0;exitDy=0;entryX=0;entryY=0.5;entryDx=0;entryDy=0;" edge="1" parent="1" source="X_FWfzNXIEtCgG27BpAt-2" target="X_FWfzNXIEtCgG27BpAt-3">
          <mxGeometry relative="1" as="geometry" />
        </mxCell>
        <mxCell id="X_FWfzNXIEtCgG27BpAt-14" style="edgeStyle=orthogonalEdgeStyle;rounded=0;orthogonalLoop=1;jettySize=auto;html=1;exitX=1;exitY=0.5;exitDx=0;exitDy=0;entryX=0;entryY=0.5;entryDx=0;entryDy=0;" edge="1" parent="1" source="X_FWfzNXIEtCgG27BpAt-2" target="X_FWfzNXIEtCgG27BpAt-5">
          <mxGeometry relative="1" as="geometry" />
        </mxCell>
        <mxCell id="X_FWfzNXIEtCgG27BpAt-2" value="Fabricate, assembly &amp;amp; test locomotion" style="rounded=1;whiteSpace=wrap;html=1;fillColor=#d5e8d4;strokeColor=#82b366;fontStyle=1" vertex="1" parent="1">
          <mxGeometry x="170" y="330" width="120" height="40" as="geometry" />
        </mxCell>
        <mxCell id="X_FWfzNXIEtCgG27BpAt-11" style="edgeStyle=orthogonalEdgeStyle;rounded=0;orthogonalLoop=1;jettySize=auto;html=1;exitX=1;exitY=0.5;exitDx=0;exitDy=0;" edge="1" parent="1" source="X_FWfzNXIEtCgG27BpAt-3" target="X_FWfzNXIEtCgG27BpAt-4">
          <mxGeometry relative="1" as="geometry" />
        </mxCell>
        <mxCell id="X_FWfzNXIEtCgG27BpAt-3" value="Develop Locomotion Software" style="rounded=1;whiteSpace=wrap;html=1;fillColor=#e1d5e7;strokeColor=#9673a6;fontStyle=1" vertex="1" parent="1">
          <mxGeometry x="250" y="270" width="130" height="40" as="geometry" />
        </mxCell>
        <mxCell id="X_FWfzNXIEtCgG27BpAt-19" style="edgeStyle=orthogonalEdgeStyle;rounded=0;orthogonalLoop=1;jettySize=auto;html=1;exitX=0.5;exitY=1;exitDx=0;exitDy=0;" edge="1" parent="1" source="X_FWfzNXIEtCgG27BpAt-4">
          <mxGeometry relative="1" as="geometry">
            <mxPoint x="465.0952380952381" y="390" as="targetPoint" />
          </mxGeometry>
        </mxCell>
        <mxCell id="X_FWfzNXIEtCgG27BpAt-4" value="Develop basic autonomy" style="rounded=1;whiteSpace=wrap;html=1;fillColor=#e1d5e7;strokeColor=#9673a6;fontStyle=1" vertex="1" parent="1">
          <mxGeometry x="420" y="270" width="90" height="40" as="geometry" />
        </mxCell>
        <mxCell id="X_FWfzNXIEtCgG27BpAt-18" style="edgeStyle=orthogonalEdgeStyle;rounded=0;orthogonalLoop=1;jettySize=auto;html=1;exitX=1;exitY=0.5;exitDx=0;exitDy=0;entryX=0.5;entryY=0;entryDx=0;entryDy=0;" edge="1" parent="1" source="X_FWfzNXIEtCgG27BpAt-5" target="X_FWfzNXIEtCgG27BpAt-9">
          <mxGeometry relative="1" as="geometry" />
        </mxCell>
        <mxCell id="X_FWfzNXIEtCgG27BpAt-5" value="Test efficacy of the system" style="rounded=1;whiteSpace=wrap;html=1;fillColor=#d5e8d4;strokeColor=#82b366;fontStyle=1" vertex="1" parent="1">
          <mxGeometry x="330" y="330" width="100" height="40" as="geometry" />
        </mxCell>
        <mxCell id="X_FWfzNXIEtCgG27BpAt-16" style="edgeStyle=orthogonalEdgeStyle;rounded=0;orthogonalLoop=1;jettySize=auto;html=1;exitX=1;exitY=0.5;exitDx=0;exitDy=0;" edge="1" parent="1" source="X_FWfzNXIEtCgG27BpAt-7" target="X_FWfzNXIEtCgG27BpAt-8">
          <mxGeometry relative="1" as="geometry" />
        </mxCell>
        <mxCell id="X_FWfzNXIEtCgG27BpAt-7" value="Re-design, aesthetics, optimizations" style="rounded=1;whiteSpace=wrap;html=1;fillColor=#f8cecc;strokeColor=#b85450;fontStyle=1" vertex="1" parent="1">
          <mxGeometry x="100" y="390" width="130" height="40" as="geometry" />
        </mxCell>
        <mxCell id="X_FWfzNXIEtCgG27BpAt-17" style="edgeStyle=orthogonalEdgeStyle;rounded=0;orthogonalLoop=1;jettySize=auto;html=1;entryX=0;entryY=0.5;entryDx=0;entryDy=0;" edge="1" parent="1" source="X_FWfzNXIEtCgG27BpAt-8" target="X_FWfzNXIEtCgG27BpAt-9">
          <mxGeometry relative="1" as="geometry" />
        </mxCell>
        <mxCell id="X_FWfzNXIEtCgG27BpAt-8" value="Collect media, develop demos" style="rounded=1;whiteSpace=wrap;html=1;fillColor=#f8cecc;strokeColor=#b85450;fontStyle=1" vertex="1" parent="1">
          <mxGeometry x="260" y="390" width="110" height="40" as="geometry" />
        </mxCell>
        <mxCell id="X_FWfzNXIEtCgG27BpAt-9" value="Symposium" style="rounded=1;whiteSpace=wrap;html=1;fillColor=#f8cecc;strokeColor=#b85450;fontStyle=1" vertex="1" parent="1">
          <mxGeometry x="420" y="390" width="90" height="40" as="geometry" />
        </mxCell>
        <mxCell id="X_FWfzNXIEtCgG27BpAt-20" value="Legend" style="swimlane;whiteSpace=wrap;html=1;container=0;" vertex="1" parent="1">
          <mxGeometry x="-20" y="275" width="90" height="155" as="geometry" />
        </mxCell>
        <mxCell id="X_FWfzNXIEtCgG27BpAt-22" value="Software" style="rounded=1;whiteSpace=wrap;html=1;fillColor=#e1d5e7;strokeColor=#9673a6;fontStyle=1;container=0;" vertex="1" parent="1">
          <mxGeometry x="-10" y="310" width="70" height="30" as="geometry" />
        </mxCell>
        <mxCell id="X_FWfzNXIEtCgG27BpAt-23" value="Hardware" style="rounded=1;whiteSpace=wrap;html=1;fillColor=#d5e8d4;strokeColor=#82b366;fontStyle=1;container=0;" vertex="1" parent="1">
          <mxGeometry x="-10" y="350" width="70" height="30" as="geometry" />
        </mxCell>
        <mxCell id="X_FWfzNXIEtCgG27BpAt-24" value="Other" style="rounded=1;whiteSpace=wrap;html=1;fillColor=#f8cecc;strokeColor=#b85450;fontStyle=1;container=0;" vertex="1" parent="1">
          <mxGeometry x="-10" y="390" width="70" height="30" as="geometry" />
        </mxCell>
      </root>
    </mxGraphModel>
  </diagram>
</mxfile>
